<svg width="14" height="11" viewBox="0 0 14 11" fill="none" xmlns="http://www.w3.org/2000/svg">
<path d="M13.5308 1.96447L13.5306 1.96433L13.4975 1.99748L5.49745 9.99748L5.49739 9.99754C5.43207 10.0631 5.35445 10.1151 5.26899 10.1506C5.18352 10.1861 5.09189 10.2043 4.99935 10.2043C4.90681 10.2043 4.81518 10.1861 4.72971 10.1506C4.64424 10.1151 4.56662 10.0631 4.5013 9.99754L4.50124 9.99748L1.00124 6.49748C0.935831 6.43207 0.883944 6.35442 0.848543 6.26895C0.813142 6.18349 0.794922 6.09189 0.794922 5.99938C0.794922 5.90687 0.813142 5.81527 0.848543 5.72981C0.883944 5.64434 0.935831 5.56669 1.00124 5.50128C1.06666 5.43586 1.14431 5.38398 1.22978 5.34858C1.31524 5.31317 1.40684 5.29495 1.49935 5.29495C1.59185 5.29495 1.68345 5.31317 1.76892 5.34858C1.85438 5.38398 1.93204 5.43586 1.99745 5.50128L4.96683 8.47065L4.99997 8.50379L5.03312 8.47065L12.5025 1.00253L12.4693 0.969379L12.5025 1.00253C12.6346 0.87042 12.8138 0.796204 13.0006 0.796204C13.1874 0.796204 13.3666 0.87042 13.4987 1.00253C13.6308 1.13463 13.705 1.3138 13.705 1.50063C13.705 1.67176 13.6428 1.83647 13.5308 1.96447Z" fill="white" stroke="white" stroke-width="0.09375"/>
</svg>
